<?xml version="1.0" encoding="UTF-8" standalone="no"?>
<svg
   viewBox="0 0 256 256"
   width="256"
   height="256"
   version="1.1"
   id="svg1"
   sodipodi:docname="eldercat.svg"
   inkscape:version="1.3.2 (091e20e, 2023-11-25, custom)"
   xmlns:inkscape="http://www.inkscape.org/namespaces/inkscape"
   xmlns:sodipodi="http://sodipodi.sourceforge.net/DTD/sodipodi-0.dtd"
   xmlns="http://www.w3.org/2000/svg"
   xmlns:svg="http://www.w3.org/2000/svg">
  <defs
     id="defs1">
    <inkscape:path-effect
       effect="fillet_chamfer"
       id="path-effect6"
       is_visible="true"
       lpeversion="1"
       nodesatellites_param="F,0,0,1,0,0,0,1 @ F,0,0,1,0,1.0693037,0,1 @ F,0,0,1,0,0,0,1"
       radius="0"
       unit="px"
       method="auto"
       mode="F"
       chamfer_steps="1"
       flexible="false"
       use_knot_distance="true"
       apply_no_radius="true"
       apply_with_radius="true"
       only_selected="false"
       hide_knots="false" />
  </defs>
  <sodipodi:namedview
     id="namedview1"
     pagecolor="#505050"
     bordercolor="#ffffff"
     borderopacity="1"
     inkscape:showpageshadow="0"
     inkscape:pageopacity="0"
     inkscape:pagecheckerboard="1"
     inkscape:deskcolor="#505050"
     inkscape:zoom="2.0911513"
     inkscape:cx="64.55774"
     inkscape:cy="116.92124"
     inkscape:window-width="1920"
     inkscape:window-height="1001"
     inkscape:window-x="-9"
     inkscape:window-y="-9"
     inkscape:window-maximized="1"
     inkscape:current-layer="layer4"
     showguides="true" />
  <g
     inkscape:groupmode="layer"
     id="layer4"
     inkscape:label="octocat">
    <path
       d="m 256,0 v 256 h -96 l 0.16,-79.84 c 0.024,-11.99998 -4,-19.68 -8.64,-23.68 28.48,-3.2 58.4,-14.08 58.4,-63.2 0,-14.08 -4.96,-25.44 -13.12,-34.4 1.28,-3.2 5.76,-16.32 -1.28,-33.92 0,0 -10.72,-3.52 -35.2,13.12 -10.24,-2.88 -21.12,-4.32 -32,-4.32 -10.88,0 -21.76,1.44 -32,4.32 C 71.84,17.6 61.12,20.96 61.12,20.96 c -7.04,17.6 -2.56,30.72 -1.28,33.92 -8.16,8.96 -13.12,20.48 -13.12,34.4 0,48.96 29.76,60 58.24,63.2 -3.68,3.2 -7.04,8.8 -8.16,17.12 -7.36,3.36 -25.76,8.8 -37.28,-10.56 -2.4,-3.84 -9.6,-13.28 -19.68,-13.12 -10.72,0.16 -4.32,6.08 0.16,8.48 5.44,3.04 11.68,14.4 13.12,18.08 2.56,7.2 10.72,20.96 42.88,15.04 V 256 H 0 V 0 Z"
       id="path1"
       sodipodi:nodetypes="cccscscccscccsccccccccccc"
       style="display:inline;stroke-width:16" />
  </g>
  <g
     inkscape:groupmode="layer"
     id="layer2"
     inkscape:label="glasses">
    <path
       style="fill:none;fill-rule:evenodd;stroke:#000000;stroke-width:0.5;stroke-linecap:butt;stroke-linejoin:miter;stroke-dasharray:none;stroke-dashoffset:0;stroke-opacity:1"
       d="M 6.0036912,4.7538806 6.9996498,4.3777695 a 2.8728203,2.8728203 179.72756 0 1 2.0042477,-0.00953 l 0.9940309,0.3646202"
       id="path5"
       sodipodi:nodetypes="ccc"
       inkscape:path-effect="#path-effect6"
       inkscape:original-d="M 6.0036912,4.7538806 8,4 9.9979284,4.7328596"
       transform="scale(16)" />
    <circle
       style="fill:#ffff00;fill-rule:evenodd;stroke-width:16"
       id="path4"
       cx="95.999184"
       cy="75.999184"
       r="19.999184" />
    <circle
       style="fill:#ffff00;fill-rule:evenodd;stroke-width:16"
       id="path4-0"
       cx="159.99918"
       cy="75.999184"
       r="19.999184" />
  </g>
  <g
     inkscape:groupmode="layer"
     id="layer1"
     inkscape:label="cane">
    <path
       style="fill:#ffff00;fill-rule:evenodd;stroke-width:16"
       d="m 24.8,140 v 13.6 l 7.2,4.8 h 16 l 7.2,-4.8 V 140 h 15.2 v 20 c 0.0083,8.04166 -13.333333,10.13333 -19.2,12.8 V 256 H 28.8 V 172.8 C 22.933333,170.13333 9.59167,167.97917 9.6,160 v -20 z"
       id="path3"
       sodipodi:nodetypes="ccccccccccccccc" />
  </g>
  <g
     inkscape:groupmode="layer"
     id="layer3"
     inkscape:label="beard">
    <path
       style="fill:#ffffff;fill-rule:evenodd;stroke:#000000;stroke-width:8;stroke-linecap:butt;stroke-linejoin:miter;stroke-miterlimit:4;stroke-dasharray:none;stroke-dashoffset:0;stroke-opacity:1"
       id="path9"
       d="m 103.03096,119.72022 c 0.15152,0.99304 0.45408,1.92973 1.02843,2.75724 1.1461,1.23642 2.68537,2.04366 4.32883,2.12913 0.89885,-0.0808 1.64076,-0.69997 2.34787,-1.21051 0.7842,-0.487 1.5607,-0.98247 2.33026,-1.49348 0.7388,-0.45529 1.40402,-1.01204 2.11142,-1.51302 0.73744,-0.492 1.45874,-0.97915 2.321,-1.21578 0.76456,-0.1472 1.5272,-0.34358 2.31021,-0.32291 0.77298,0.0624 1.55088,0.208 2.2788,0.47984 1.12038,0.73989 -0.38891,-0.2668 -1.99437,-1.0908 -0.10448,-0.0536 0.17566,0.15632 0.25657,0.24141 0.27303,0.28723 0.49907,0.61355 0.72255,0.93912 0.46403,0.61066 0.64387,1.35392 0.89662,2.06316 0.16728,0.46182 0.26376,0.94382 0.3328,1.42885 0.007,0.0485 -0.0266,0.12512 0.0178,0.14608 0.87178,0.41081 1.77732,0.74574 2.66598,1.1186 -0.18445,-0.7612 0.27666,-1.34424 0.70088,-1.92528 0.67286,-0.84081 1.50912,-1.49971 2.46316,-1.98898 0.45432,-0.28123 0.97605,-0.37657 1.47746,-0.52976 0.4815,-0.14704 0.9506,-0.31429 1.43779,-0.44526 0.69464,-0.18211 1.39425,-0.28581 2.10699,-0.18779 0.96346,0.33059 2.42246,1.15963 -1.81761,-1.09927 -0.0907,-0.0483 0.16447,0.12368 0.24172,0.19149 0.20718,0.1819 0.25817,0.25419 0.43667,0.45949 0.30268,0.49457 0.55721,1.00045 0.93908,1.44077 0.5317,0.60998 1.18191,1.08315 1.85845,1.51732 0.12608,0.0763 0.24986,0.15648 0.37814,0.22887 2.28685,1.29129 2.50174,1.62506 4.46244,2.0596 0.83384,0.14976 1.68371,0.17863 2.52883,0.20072 0.65203,0.0114 1.17738,-0.25523 1.71977,-0.5775 0.34957,-0.21378 0.52726,-0.57733 0.77757,-0.88168 0.12192,-0.14816 0.25769,-0.28439 0.38388,-0.42893 0.45765,-0.43992 0.8792,-0.91214 1.30541,-1.38136 0,0 -2.53977,-1.5379 -2.53977,-1.5379 v 0 c -0.42194,0.47395 -0.86106,0.93012 -1.30733,1.38145 -0.0286,0.0314 -0.37457,0.40909 -0.40816,0.45082 -0.22307,0.27726 -0.37925,0.60326 -0.71,0.77843 -0.50331,0.29464 -1.01537,0.47539 -1.60959,0.45128 -0.83472,-0.025 -1.67475,-0.0627 -2.49217,-0.24741 -0.37809,-0.0923 -0.75909,-0.18238 -1.12475,-0.31801 -0.12544,-0.0466 -0.48456,-0.22407 -0.37123,-0.1528 0.79886,0.50174 3.11806,1.82119 1.75354,1.04334 -0.66168,-0.42304 -1.34455,-0.8325 -1.85707,-1.44181 -0.4301,-0.40035 -0.71733,-0.88252 -0.95541,-1.41857 -0.94185,-1.26914 -2.42799,-2.20754 -3.98518,-2.49147 -0.72693,-0.0386 -1.44258,0.10144 -2.14094,0.29697 -0.99644,0.28927 -2.01222,0.5718 -2.94316,1.03276 -0.97554,0.5366 -1.83663,1.22888 -2.54347,2.09502 -0.45621,0.62312 -0.98845,1.28596 -0.85255,2.10903 0.90837,0.49803 1.80141,1.02512 2.72512,1.4941 0.0437,0.0221 -0.041,-0.0896 -0.0525,-0.13712 -0.11904,-0.49066 -0.13632,-1.00676 -0.32158,-1.48232 -0.26156,-0.72485 -0.41994,-1.49373 -0.86814,-2.12831 -1.02124,-1.60037 -1.96113,-2.28438 -4.03387,-3.09346 -0.76006,-0.22127 -1.54657,-0.39312 -2.34097,-0.40171 -0.79454,0.0458 -1.57701,0.20908 -2.34929,0.39625 -0.86637,0.28747 -1.60723,0.79696 -2.36259,1.29967 -0.71131,0.49115 -1.37611,1.0468 -2.10989,1.50644 -0.76774,0.51511 -1.56105,0.98901 -2.3258,1.50724 -0.67573,0.47657 -1.39267,1.0486 -2.26159,1.02001 -1.3353,-0.1392 -2.78687,-1.1979 1.07278,1.01291 0.1048,0.06 -0.19681,-0.14032 -0.29523,-0.21036 -0.63608,-0.74656 -0.97795,-1.6496 -1.06862,-2.62626 z" />
    <path
       style="fill:#000000;fill-rule:evenodd;stroke:none;stroke-width:8;stroke-linecap:butt;stroke-linejoin:miter;stroke-miterlimit:4;stroke-dasharray:none;stroke-dashoffset:0;stroke-opacity:1"
       d="m 104,140 8.00413,36 7.99587,-16 8,32 8,-32 8,16 8,-36"
       id="path16"
       sodipodi:nodetypes="ccccccc" />
  </g>
</svg>
